<?xml version="1.0" encoding="UTF-8" standalone="no"?>
<svg
   xmlns:dc="http://purl.org/dc/elements/1.1/"
   xmlns:cc="http://creativecommons.org/ns#"
   xmlns:rdf="http://www.w3.org/1999/02/22-rdf-syntax-ns#"
   xmlns:svg="http://www.w3.org/2000/svg"
   xmlns="http://www.w3.org/2000/svg"
   viewBox="0 0 8314.96 1685.92"
   height="1685.92"
   width="8314.96"
   xml:space="preserve"
   id="svg2"
   version="1.1"><metadata
     id="metadata8"><rdf:RDF><cc:Work
         rdf:about=""><dc:format>image/svg+xml</dc:format><dc:type
           rdf:resource="http://purl.org/dc/dcmitype/StillImage" /></cc:Work></rdf:RDF></metadata><defs
     id="defs6"><clipPath
       id="clipPath18"
       clipPathUnits="userSpaceOnUse"><path
         id="path16"
         d="M 0,0 H 6236.22 V 1264.439 H 0 Z" /></clipPath></defs><g
     transform="matrix(1.3333333,0,0,-1.3333333,0,1685.92)"
     id="g10"><g
       id="g12"><g
         clip-path="url(#clipPath18)"
         id="g14"><g
           transform="translate(4562.498,927.4053)"
           id="g20"><path
             id="path22"
             style="fill:#006ee7;fill-opacity:1;fill-rule:nonzero;stroke:none"
             d="m 0,0 c 37.812,-11.867 70.212,-27.757 96.437,-47.41 14.618,-10.162 26.686,-21.878 38.418,-34.582 31.33,-37.1 42.812,-72.3 33.996,-106.601 -3.115,-12.112 -10.039,-22.169 -20.424,-29.147 -9.46,-7.237 -22.823,-9.213 -39.951,-4.81 -19.187,4.932 -36.32,13.65 -50.41,25.869 -3.543,3.078 -6.273,4.852 -8.74,7.637 -16.194,17.033 -28.567,35.294 -37.034,56.849 -8.474,21.515 -14.707,43.55 -16.5,65.516 -2.615,23.272 -1.496,44.49 3.69,64.665 z m -486.693,-324.837 c 14.823,-53.133 45.673,-101.752 89.351,-141.268 41.162,-37.242 90.55,-64.624 142.318,-84.66 63.477,-24.566 131.816,-37.573 199.943,-36.264 46.542,0.893 92.967,9.077 136.841,24.697 32.886,11.708 82.638,28.997 90.148,68.212 3.514,18.351 -5.644,37.599 -23.721,43.837 -17.564,6.063 -35.083,-2.398 -49.601,-11.889 -91.637,-59.914 -206.563,-88.14 -314.938,-67.294 -91.218,17.546 -183.115,79.403 -209.537,172.96 -12.836,45.444 -4.986,98.243 31.569,130.878 34.39,30.704 97.534,32.235 122.841,-11.041 24.615,-42.089 -1.922,-99.899 -54.693,-90.989 -22.432,3.788 -41.309,23.549 -39.953,47.047 0.598,10.352 8.007,24.271 20.143,22.837 11.695,-1.383 16.17,-16.394 17.916,-26.132 2.169,-12.107 14.198,-17.301 24.247,-10.27 7.083,4.956 7.996,18.429 6.909,26.186 -1.368,9.761 -6.579,18.789 -14.516,24.671 -27.241,20.19 -63.095,-6.614 -68.869,-35.216 -10.829,-53.624 59.296,-83.769 101.123,-61.953 51.27,26.741 55.365,99.486 14.922,137.681 -31.883,30.11 -82.315,33.838 -120.365,13.686 -43.673,-23.129 -65.163,-68.064 -67.293,-114.773 -8.432,45.526 -4.626,93.407 12.286,139.864 13.28,36.474 33.971,70.348 61.092,98.181 91.417,93.817 227.493,104.672 348.292,73.622 5.304,-1.364 10.611,-2.762 15.948,-3.943 -3.042,0.673 -7.498,-63.359 -7.416,-69.234 0.362,-25.866 3.407,-51.268 11.219,-76.016 7.916,-23.523 20.417,-46.111 38.205,-64.67 6.545,-8.128 14.544,-14.463 22.831,-19.836 12.845,-8.692 29.202,-16.119 46.332,-20.522 26.312,-6.764 46.193,-4.337 60.945,6.914 14.494,10.261 23.642,25.116 28.045,42.25 10.117,39.353 -0.922,79.835 -34.532,120.743 -13.761,17.521 -30.353,32.531 -50.485,46.319 -26.487,18.628 -57.819,34.199 -94.696,45.83 10.473,28.501 29.865,53.634 57.123,75.637 23.399,19.809 50.979,35.317 81.135,47.998 3.578,1.228 8.387,3.214 11.891,4.465 35.714,13.4 74.242,20.724 115.636,22.954 42.639,3.026 83.609,-1.037 125.971,-11.927 53.449,-13.738 106.098,-39.089 156.154,-74.536 50.803,-36.714 101.272,-78.754 150.192,-126.82 48.962,-48.058 100.426,-98.926 152.375,-152.071 149.664,-153.107 322.212,-318.337 535.345,-373.122 64.533,-16.588 122.973,-11.199 175.447,17.252 83.712,45.457 126.913,149.349 96.62,240.205 -18.065,54.182 -59.305,99.514 -109.971,125.88 -60.321,31.392 -131.912,33.575 -193.888,5.552 -18.185,-8.221 -39.917,-20.652 -45.888,-40.987 -4.642,-15.798 -0.257,-33.495 12.713,-44.138 37.031,-30.387 90.479,19.517 127.587,26.568 49.019,9.315 97.338,-11.316 130.733,-47.077 51.17,-54.8 70.8,-141.23 22.009,-204.013 -43.145,-55.515 -126.319,-68.809 -191.977,-58.331 -68.894,10.994 -134.256,42.799 -191.672,81.494 -76.031,51.243 -141.936,118.23 -207.158,182.968 -79.478,78.888 -151.092,165.98 -233.446,241.081 C 730.88,2.461 674.326,46.044 612.181,84.62 c -61.107,38.267 -131.894,68.299 -209.599,88.272 -39.374,10.121 -80.231,14.179 -122.684,12.179 -43.496,-1.732 -84.218,-9.546 -122.168,-23.446 -2.283,-0.51 -5.851,-1.699 -8.129,-2.209 C 114.818,145.776 83.771,129.008 57.516,106.73 27.861,83.16 6.467,54.26 -6.904,18.966 l -19.182,4.93 c -140.178,36.031 -309.694,21.657 -406.976,-97.556 -26.464,-31.912 -44.305,-68.192 -54.675,-108.537 -12.578,-48.93 -11.572,-97.419 1.044,-142.64" /></g><text
           id="text26"
           style="font-variant:normal;font-weight:normal;font-stretch:normal;font-size:585.48406982px;font-family:Times;-inkscape-font-specification:Times-Roman;writing-mode:lr-tb;fill:#000000;fill-opacity:1;fill-rule:nonzero;stroke:none"
           transform="matrix(1,0,0,-1,732.8809,778.0127)"><tspan
             id="tspan24"
             y="0"
             x="0 357.73077 650.47284 813.23743 1008.2036 1170.9681 1430.9231 1593.6877">Edifício</tspan></text>
<g
           transform="translate(5922.6846,727.8579)"
           id="g28"><path
             id="path30"
             style="fill:#006ee7;fill-opacity:1;fill-rule:nonzero;stroke:none"
             d="m 0,0 c 61.977,28.023 133.567,25.839 193.89,-5.552 50.666,-26.366 91.905,-71.698 109.97,-125.88 5.623,-16.862 8.689,-34.173 9.459,-51.476 0.92,22.782 -2.035,45.831 -9.459,68.099 -18.065,54.182 -59.304,99.514 -109.97,125.88 C 133.567,42.462 61.977,44.646 0,16.623 -18.185,8.402 -39.914,-4.029 -45.888,-24.364 c -2.023,-6.889 -2.015,-14.08 -0.643,-20.947 0.272,1.44 0.227,2.909 0.643,4.324 C -39.914,-20.652 -18.185,-8.222 0,0" /></g><g
           transform="translate(831.7905,68.2139)"
           id="g32"><path
             id="path34"
             style="fill:#0000cc;fill-opacity:1;fill-rule:nonzero;stroke:none"
             d="m 0,0 c -12.411,-9.507 -39.568,-15.753 -81.472,-18.754 v -19.111 h 304.767 v 19.111 c -41.913,3.001 -69.07,9.247 -81.473,18.754 -12.41,9.507 -18.608,34.101 -18.608,73.783 v 68.878 C 88.964,115.937 54.057,90.142 18.436,65.397 17.585,30.717 11.486,8.804 0,0" /></g><g
           transform="translate(831.7905,673.3271)"
           id="g36"><path
             id="path38"
             style="fill:#0000cc;fill-opacity:1;fill-rule:nonzero;stroke:none"
             d="m 0,0 c 1.103,-0.969 2.097,-2.176 3.102,-3.358 21.55,-14.169 42.261,-29.233 61.941,-45.045 l -3.909,-5.812 -33.81,17.493 c 12.894,-9.166 25.562,-18.537 37.719,-28.303 l -3.909,-5.812 -43.62,22.566 c 0.715,-7.539 1.094,-15.809 1.094,-24.903 v -404.925 c 35.68,32.055 70.218,65.578 104.606,98.97 v 305.955 c 0,37.881 6.198,62.272 18.608,73.174 12.403,10.894 39.56,17.351 81.473,19.362 V 38.473 H -68.491 C -50.847,29.323 -33.665,19.492 -16.88,9.143 -9.76,6.544 -4.022,3.531 0,0" /></g><g
           transform="translate(1093.3066,456.8213)"
           id="g40"><path
             id="path42"
             style="fill:#0000cc;fill-opacity:1;fill-rule:nonzero;stroke:none"
             d="m 0,0 v -17.602 c 4.688,0.665 8.631,1.168 11.819,1.509 1.567,0.164 3.057,0.164 4.587,0.248 C 28.031,-5.107 39.625,5.487 51.277,16.14 26.193,8.049 8.994,2.634 0,0" /></g><g
           transform="translate(1513.2412,113.3301)"
           id="g44"><path
             id="path46"
             style="fill:#0000cc;fill-opacity:1;fill-rule:nonzero;stroke:none"
             d="m 0,0 v 234.862 c 0,65.379 -18.073,110.803 -54.209,136.29 -18.746,13.076 -39.487,19.614 -62.249,19.614 -28.114,0 -55.215,-8.217 -81.318,-24.643 -17.407,-10.732 -41.498,-30.516 -72.29,-59.344 v 44.2 c -27.56,-26.531 -55.447,-52.835 -83.691,-78.848 0.076,-2.68 0.207,-5.184 0.207,-8.1 V 8.55 c 0,-30.849 -4.778,-50.714 -14.333,-59.596 -9.554,-8.89 -26.241,-14.836 -50.04,-17.853 v -14.082 h 219.774 v 14.082 c -23.134,0.665 -40.071,5.11 -50.794,13.327 -10.732,8.209 -16.094,24.391 -16.094,48.531 v 281.633 c 18,17.764 32.674,30.508 44.014,38.222 20.335,13.408 40.338,20.116 60.009,20.116 28.666,0 48.337,-9.474 59.011,-28.414 10.667,-18.949 16.004,-42.838 16.004,-71.666 V 18.105 c 0,-34.198 -4.867,-56.416 -14.584,-66.636 -9.726,-10.229 -26.825,-17.018 -51.298,-20.368 V -82.981 H 62.865 v 14.082 C 40.25,-68.567 24.116,-63.035 14.463,-52.303 4.818,-41.58 0,-24.14 0,0" /></g><g
           transform="translate(1835.3594,84.1611)"
           id="g48"><path
             id="path50"
             style="fill:#0000cc;fill-opacity:1;fill-rule:nonzero;stroke:none"
             d="m 0,0 c -8.89,-5.702 -19.362,-8.55 -31.432,-8.55 -23.475,0 -39.228,11.567 -47.274,34.702 -4.364,13.075 -6.538,32.348 -6.538,57.835 l 1.006,289.68 H 18.355 v 36.209 H -83.233 v 123.718 c 0,4.356 -0.421,6.87 -1.257,7.544 -0.843,0.665 -3.439,1.005 -7.795,1.005 -37.889,-50.965 -61.948,-82.397 -72.168,-94.296 -10.229,-11.909 -26.906,-27.41 -50.041,-46.52 -8.046,-6.708 -12.824,-10.983 -14.333,-12.824 -1.509,-1.85 -2.263,-4.446 -2.263,-7.796 0,-1.679 0.414,-3.018 1.257,-4.023 0.836,-1.006 2.093,-2.012 3.771,-3.017 h 54.819 V 68.898 c 0,-33.864 3.853,-60.348 11.567,-79.46 14.082,-35.203 40.899,-52.805 80.467,-52.805 18.105,0 36.875,4.867 56.326,14.584 19.444,9.718 37.881,26.314 55.321,49.789 L 43.502,16.093 30.426,27.157 C 19.021,14.747 8.882,5.694 0,0" /></g><g
           transform="translate(1997.0464,414.5771)"
           id="g52"><path
             id="path54"
             style="fill:#0000cc;fill-opacity:1;fill-rule:nonzero;stroke:none"
             d="m 0,0 c 20.117,33.857 49.286,50.794 87.507,50.794 38.555,0 66.045,-14.754 82.479,-44.256 9.052,-16.434 15.42,-41.41 19.11,-74.935 H -23.134 C -18.446,-40.907 -10.732,-18.105 0,0 m 229.833,-295.779 c -24.14,-18.407 -53.812,-27.596 -89.016,-27.596 -43.592,0 -81.311,17.731 -113.157,53.179 -31.854,35.464 -49.456,92.002 -52.806,169.613 h 319.352 c 0,60.009 -17.773,106.366 -53.309,139.056 -35.545,32.69 -76.946,49.034 -124.22,49.034 -64.041,0 -116.012,-24.481 -155.904,-73.425 -39.901,-48.954 -59.847,-107.121 -59.847,-174.513 0,-62.028 17.18,-116.846 51.548,-164.454 34.361,-47.613 83.063,-71.413 146.098,-71.413 54.647,0 100.834,18.13 138.553,54.403 37.719,36.259 63.448,75.723 77.197,118.373 l -17.602,6.027 c -20.457,-33.793 -42.747,-59.887 -66.887,-78.284" /></g><g
           transform="translate(2623.5254,504.0957)"
           id="g56"><path
             id="path58"
             style="fill:#0000cc;fill-opacity:1;fill-rule:nonzero;stroke:none"
             d="m 0,0 c -21.528,0 -42.285,-8.387 -62.297,-25.146 -20.003,-16.766 -40.76,-40.071 -62.272,-69.905 v 82.478 c 0,5.362 -0.252,8.882 -0.754,10.561 -0.503,1.671 -1.915,2.515 -4.259,2.515 -17.716,-8.047 -34.928,-15.258 -51.638,-21.625 -7.682,-3.018 -21.552,-8.047 -41.604,-15.088 -20.06,-7.041 -39.609,-13.919 -58.655,-20.619 v -16.597 c 6.035,1.339 11.819,2.426 17.351,3.269 5.532,0.836 9.969,1.259 13.327,1.259 16.426,0 27.742,-7.132 33.947,-21.374 6.197,-14.253 9.304,-37.972 9.304,-71.164 v -226.815 c 0,-26.825 -5.029,-44.346 -15.088,-52.555 -10.058,-8.216 -30.515,-13.668 -61.355,-16.345 v -16.596 h 247.937 v 16.596 c -31.181,-0.673 -53.479,4.608 -66.888,15.842 -13.416,11.227 -20.116,31.262 -20.116,60.099 v 226.815 c 0,20.116 8.549,39.641 25.648,58.59 17.099,18.94 31.514,28.414 43.251,28.414 7.374,0 17.513,-5.872 30.427,-17.602 12.905,-11.736 25.729,-17.602 38.473,-17.602 12.402,0 22.712,4.689 30.929,14.082 8.209,9.385 12.322,20.952 12.322,34.701 0,15.42 -5.387,28.244 -16.143,38.473 C 31.092,-5.118 17.14,0 0,0" /></g><g
           transform="translate(3114.5254,113.3301)"
           id="g60"><path
             id="path62"
             style="fill:#0000cc;fill-opacity:1;fill-rule:nonzero;stroke:none"
             d="m 0,0 v 234.862 c 0,65.379 -18.073,110.803 -54.209,136.29 -18.746,13.076 -39.488,19.614 -62.249,19.614 -28.114,0 -55.215,-8.217 -81.318,-24.643 -17.407,-10.732 -41.498,-30.516 -72.29,-59.344 v 73.928 c 0,3.018 -0.251,5.362 -0.754,7.041 -0.503,1.671 -1.931,2.515 -4.275,2.515 l -47.274,-15.591 c -51.298,-16.766 -83.825,-27.157 -97.566,-31.18 V 325.89 c 4.689,0.665 8.631,1.168 11.819,1.508 3.179,0.333 6.286,0.503 9.304,0.503 19.776,0 32.852,-6.327 39.227,-18.973 4.023,-8.647 6.035,-23.621 6.035,-44.897 V 8.55 c 0,-30.849 -4.778,-50.714 -14.333,-59.596 -9.554,-8.89 -26.241,-14.836 -50.04,-17.853 v -14.082 h 219.774 v 14.082 c -23.134,0.665 -40.071,5.11 -50.794,13.327 -10.732,8.209 -16.094,24.391 -16.094,48.531 v 281.633 c 18,17.764 32.674,30.508 44.014,38.222 20.335,13.408 40.338,20.116 60.009,20.116 28.666,0 48.337,-9.474 59.011,-28.414 10.667,-18.949 16.004,-42.838 16.004,-71.666 V 18.105 c 0,-34.198 -4.866,-56.416 -14.584,-66.636 -9.726,-10.229 -26.825,-17.018 -51.298,-20.368 V -82.981 H 62.865 v 14.082 C 40.25,-68.567 24.116,-63.035 14.463,-52.303 4.818,-41.58 0,-24.14 0,0" /></g><g
           transform="translate(3488.1924,149.54)"
           id="g64"><path
             id="path66"
             style="fill:#0000cc;fill-opacity:1;fill-rule:nonzero;stroke:none"
             d="m 0,0 c 0,-19.111 -10.147,-34.872 -30.427,-47.274 -20.287,-12.411 -41.49,-18.608 -63.619,-18.608 -16.093,0 -30.678,4.688 -43.754,14.082 -20.116,14.414 -30.175,36.875 -30.175,67.39 0,37.881 24.14,71.747 72.42,101.589 25.147,15.42 56.992,29.502 95.555,42.245 z m 114.665,-68.396 c -13.75,0 -22.803,6.537 -27.158,19.613 -2.684,7.374 -4.024,20.782 -4.024,40.233 v 201.67 c 0,44.256 -6.205,77.952 -18.607,101.086 -23.135,42.245 -67.229,63.367 -132.268,63.367 -55.994,0 -98.49,-12.824 -127.488,-38.473 -29.008,-25.649 -43.502,-50.21 -43.502,-73.677 0,-12.069 4.023,-23.053 12.07,-32.941 8.046,-9.896 19.614,-14.836 34.701,-14.836 9.717,0 18.104,2.174 25.145,6.538 12.404,7.373 18.609,20.449 18.609,39.227 0,2.677 -0.844,8.801 -2.515,18.358 -1.68,9.554 -2.515,16.343 -2.515,20.367 0,15.752 7.706,28.163 23.134,37.217 15.421,8.71 31.684,13.074 48.783,13.074 35.869,0 59.506,-11.234 70.911,-33.695 C -3.358,285.316 0,261.516 0,227.318 V 184.57 c -92.204,-34.539 -153.73,-61.859 -184.57,-81.975 -48.621,-32.527 -72.923,-73.093 -72.923,-121.706 0,-31.181 10.56,-56.919 31.683,-77.197 21.123,-20.287 46.098,-30.427 74.935,-30.427 27.489,0 56.488,9.053 87.005,27.158 18.104,10.723 39.891,27.157 65.379,49.285 1.006,-20.457 6.619,-38.059 16.846,-52.806 10.222,-14.755 26.737,-22.128 49.539,-22.128 19.443,0 38.554,6.368 57.332,19.111 12.403,8.379 23.969,19.111 34.701,32.186 v 26.152 c -12.41,-9.052 -21.122,-14.755 -26.152,-17.099 -5.028,-2.353 -11.405,-3.52 -19.11,-3.52" /></g><g
           transform="translate(4007.7041,129.999)"
           id="g68"><path
             id="path70"
             style="fill:#0000cc;fill-opacity:1;fill-rule:nonzero;stroke:none"
             d="m 0,0 c -27.157,-22.85 -58.176,-34.271 -93.04,-34.271 -49.285,0 -88.431,20.141 -117.43,60.431 -29.007,40.282 -43.503,85.772 -43.503,136.468 0,55.394 13.158,99.789 39.479,133.192 26.314,33.404 58.591,50.114 96.812,50.114 18.105,0 32.689,-3.521 43.753,-10.562 10.724,-7.382 18.268,-19.955 22.632,-37.719 l 6.035,-24.139 c 4.023,-15.429 10.471,-27.158 19.363,-35.204 8.881,-8.047 19.191,-12.071 30.928,-12.071 16.094,0 27.993,4.762 35.707,14.285 7.706,9.523 11.568,19.792 11.568,30.832 0,25.721 -15.178,49.358 -45.515,70.919 -30.345,21.544 -66.474,32.325 -108.378,32.325 -67.058,0 -122.549,-24.984 -166.465,-74.935 -43.924,-49.959 -65.882,-109.636 -65.882,-179.038 0,-70.749 20.117,-126.734 60.35,-167.974 40.233,-41.239 86.501,-61.859 138.806,-61.859 53.308,0 100.241,22.485 140.815,67.464 21.122,23.491 41.239,55.379 60.35,95.651 L 52.304,62.476 C 32.853,33.923 15.42,13.092 0,0" /></g><g
           transform="translate(4295.3721,395.7178)"
           id="g72"><path
             id="path74"
             style="fill:#0000cc;fill-opacity:1;fill-rule:nonzero;stroke:none"
             d="m 0,0 c -40.185,15.173 -77.917,38.93 -107.298,69.99 -6.426,-2.149 -13.131,-4.375 -20.116,-6.673 C -90.079,30.21 -46.183,5.195 0,-13.88 Z" /></g><g
           transform="translate(4209.373,374.8467)"
           id="g76"><path
             id="path78"
             style="fill:#0000cc;fill-opacity:1;fill-rule:nonzero;stroke:none"
             d="m 0,0 v -239.892 c 0,-39.226 -4.695,-63.286 -14.082,-72.168 -9.393,-8.89 -32.023,-15.006 -67.893,-18.356 v -14.081 h 244.417 v 14.081 c -32.527,2.677 -53.399,8.882 -62.613,18.607 -9.223,9.719 -13.83,33.697 -13.83,71.917 V -9.63 C 54.989,3.178 25.118,18.76 -2.533,37.623 -0.846,28.823 0,16.291 0,0" /></g><g
           transform="translate(4167.958,459.0352)"
           id="g80"><path
             id="path82"
             style="fill:#0000cc;fill-opacity:1;fill-rule:nonzero;stroke:none"
             d="m 0,0 c -4.333,-1.426 -8.638,-2.844 -13.185,-4.327 3.418,-3.372 6.788,-6.779 10.383,-10.03 1.658,-1.501 3.524,-2.742 5.207,-4.21 0.945,0.045 1.845,0.26 2.801,0.26 16.093,0 26.654,-6.879 31.683,-20.619 0.762,-2.116 1.424,-4.671 1.994,-7.639 27.649,-18.864 57.522,-34.446 88.53,-47.254 v 16.622 C 81.231,-58.121 37.335,-33.107 0,0" /></g><g
           transform="translate(4295.3721,496.0488)"
           id="g84"><path
             id="path86"
             style="fill:#0000cc;fill-opacity:1;fill-rule:nonzero;stroke:none"
             d="M 0,0 C 0,2.678 -0.341,5.191 -1.007,7.544 -3.69,7.544 -9.726,5.532 -19.111,1.509 -35.421,-5.348 -60.753,-14.585 -94.724,-26.104 -67.481,-51.129 -34.66,-70.622 0,-83.709 Z" /></g><g
           transform="translate(4295.3721,395.7178)"
           id="g88"><path
             id="path90"
             style="fill:#0000cc;fill-opacity:1;fill-rule:nonzero;stroke:none"
             d="m 0,0 v 16.623 c -34.66,13.087 -67.481,32.579 -94.724,57.605 -4.068,-1.38 -8.252,-2.791 -12.574,-4.238 C -77.917,38.93 -40.185,15.173 0,0" /></g><g
           transform="translate(4154.7734,454.709)"
           id="g92"><path
             id="path94"
             style="fill:#0000cc;fill-opacity:1;fill-rule:nonzero;stroke:none"
             d="m 0,0 c -0.423,-0.139 -0.8,-0.265 -1.224,-0.402 l -21.626,-7.04 v -15.591 c 16.759,4.688 26.907,7.374 30.427,8.047 2.609,0.493 5.312,0.616 8.013,0.745 -1.684,1.468 -3.549,2.709 -5.207,4.21 C 6.787,-6.779 3.418,-3.372 0,0" /></g><g
           transform="translate(4710.6855,460.499)"
           id="g96"><path
             id="path98"
             style="fill:#006ee7;fill-opacity:1;fill-rule:nonzero;stroke:none"
             d="m 0,0 c -8.934,3.084 -17.852,2.391 -26.373,-0.267 17.363,-8.621 32.466,-22.248 45.475,-40.509 2,3.996 3.488,8.284 4.431,12.855 C 21.011,-15.394 12.801,-4.418 0,0" /></g><g
           transform="translate(4507.417,340.376)"
           id="g100"><path
             id="path102"
             style="fill:#0000cc;fill-opacity:1;fill-rule:nonzero;stroke:none"
             d="m 0,0 c 3.026,0.059 6.038,0.411 9.063,0.53 2.426,17.889 6.322,33.847 11.42,48.215 C -7.032,41.414 -35.212,36.77 -63.554,35.005 -68.329,25.152 -72.207,14.864 -75.569,4.324 -50.521,1.019 -25.247,-0.484 0,0" /></g><g
           transform="translate(4710.6855,460.499)"
           id="g104"><path
             id="path106"
             style="fill:#006ee7;fill-opacity:1;fill-rule:nonzero;stroke:none"
             d="m 0,0 c 12.801,-4.418 21.011,-15.394 23.533,-27.921 0.049,0.242 0.141,0.462 0.188,0.707 3.513,18.353 -5.645,37.6 -23.721,43.838 -16.077,5.549 -32.088,-1.09 -45.823,-9.529 6.757,-1.851 13.25,-4.282 19.45,-7.362 C -17.852,2.391 -8.934,3.084 0,0" /></g><g
           transform="translate(4514.8066,324.1846)"
           id="g108"><path
             id="path110"
             style="fill:#0000cc;fill-opacity:1;fill-rule:nonzero;stroke:none"
             d="m 0,0 c 0.488,5.667 0.947,11.369 1.673,16.722 -3.025,-0.119 -6.037,-0.473 -9.064,-0.53 -25.246,-0.485 -50.52,1.018 -75.567,4.325 C -84.631,15.276 -86.189,9.98 -87.512,4.571 -60.973,0.828 -34.172,-0.946 -7.391,-0.432 -4.922,-0.384 -2.467,-0.088 0,0" /></g><g
           transform="translate(4733.7617,414.2393)"
           id="g112"><path
             id="path114"
             style="fill:#000063;fill-opacity:1;fill-rule:nonzero;stroke:none"
             d="M 0,0 C 0.197,0.816 0.484,1.587 0.645,2.423 1.671,7.779 1.498,13.176 0.457,18.339 -0.486,13.768 -1.975,9.479 -3.975,5.482 -2.659,3.636 -1.271,1.947 0,0" /></g><g
           transform="translate(4527.9004,389.1221)"
           id="g116"><path
             id="path118"
             style="fill:#0000cc;fill-opacity:1;fill-rule:nonzero;stroke:none"
             d="M 0,0 C 2.373,6.684 5.047,12.97 7.998,18.893 -19.002,11.159 -46.685,5.951 -74.594,3.571 -77.965,-2.092 -81.175,-7.832 -84.037,-13.741 -55.695,-11.978 -27.516,-7.332 0,0" /></g><g
           transform="translate(4563.5234,445.7578)"
           id="g120"><path
             id="path122"
             style="fill:#0000cc;fill-opacity:1;fill-rule:nonzero;stroke:none"
             d="m 0,0 c 19.477,17.432 42.488,26.151 69.021,26.151 11.422,0 22.153,-1.532 32.317,-4.316 13.735,8.439 29.746,15.08 45.824,9.529 18.076,-6.237 27.235,-25.484 23.721,-43.838 -0.047,-0.244 -0.138,-0.464 -0.188,-0.706 1.04,-5.163 1.214,-10.559 0.188,-15.916 -0.16,-0.837 -0.447,-1.605 -0.645,-2.423 3.913,-5.987 7.655,-12.353 11.145,-19.276 25.859,-51.298 38.797,-105.953 38.797,-163.95 0,-55.994 -10.164,-101.257 -30.484,-135.787 -20.319,-34.539 -49.294,-51.801 -86.915,-51.801 -48.036,0 -85.576,25.811 -112.613,77.448 -27.043,51.631 -40.557,107.284 -40.557,166.969 0,12.849 0.68,24.801 1.672,36.343 -2.467,-0.088 -4.922,-0.384 -7.39,-0.432 -26.781,-0.515 -53.582,1.261 -80.122,5.003 -5.009,-20.497 -7.703,-42.121 -7.703,-65.055 0,-71.414 22.291,-130.757 66.889,-178.031 44.588,-47.274 99.074,-70.911 163.447,-70.911 67.05,0 121.706,24.643 163.95,73.929 42.246,49.285 63.369,107.283 63.369,174.008 0,72.419 -21.797,130.417 -65.379,174.009 -43.592,43.583 -98.573,65.38 -164.957,65.38 -66.726,0 -121.291,-23.054 -163.7,-69.151 -11.606,-12.618 -21.472,-26.08 -29.904,-40.24 27.909,2.379 55.592,7.588 82.592,15.321 C -20.191,-22.825 -11.104,-10.086 0,0" /></g><g
           transform="translate(5344.9658,113.3301)"
           id="g124"><path
             id="path126"
             style="fill:#0000cc;fill-opacity:1;fill-rule:nonzero;stroke:none"
             d="m 0,0 v 234.862 c 0,65.379 -18.073,110.803 -54.218,136.29 -18.754,13.076 -39.487,19.614 -62.231,19.614 -28.131,0 -55.232,-8.217 -81.335,-24.643 -17.407,-10.732 -41.499,-30.516 -72.29,-59.344 v 73.928 c 0,3.018 -0.251,5.362 -0.754,7.041 -0.503,1.671 -1.931,2.515 -4.275,2.515 l -47.275,-15.591 c -51.297,-16.766 -83.824,-27.157 -97.565,-31.18 V 325.89 c 4.688,0.665 8.631,1.168 11.818,1.508 3.18,0.333 6.286,0.503 9.305,0.503 19.776,0 32.85,-6.327 39.227,-18.973 4.023,-8.647 6.035,-23.621 6.035,-44.897 V 8.55 c 0,-30.849 -4.779,-50.714 -14.334,-59.596 -9.554,-8.89 -26.24,-14.836 -50.039,-17.853 v -14.082 h 219.774 v 14.082 c -23.134,0.665 -40.071,5.11 -50.795,13.327 -10.731,8.209 -16.094,24.391 -16.094,48.531 v 281.633 c 18,17.764 32.674,30.508 44.014,38.222 20.336,13.408 40.339,20.116 60.01,20.116 28.673,0 48.335,-9.474 59.011,-28.414 10.674,-18.949 15.996,-42.838 15.996,-71.666 V 18.105 c 0,-34.198 -4.867,-56.416 -14.568,-66.636 -9.734,-10.229 -26.833,-17.018 -51.307,-20.368 V -82.981 H 62.848 v 14.082 C 40.233,-68.567 24.106,-63.035 14.471,-52.303 4.802,-41.58 0,-24.14 0,0" /></g><g
           transform="translate(5718.6328,149.54)"
           id="g128"><path
             id="path130"
             style="fill:#0000cc;fill-opacity:1;fill-rule:nonzero;stroke:none"
             d="m 0,0 c 0,-19.111 -10.141,-34.872 -30.419,-47.274 -20.295,-12.411 -41.499,-18.608 -63.627,-18.608 -16.094,0 -30.678,4.688 -43.754,14.082 -20.116,14.414 -30.175,36.875 -30.175,67.39 0,37.881 24.14,71.747 72.42,101.589 25.147,15.42 56.991,29.502 95.555,42.245 z M -10.059,298.732 C -3.359,285.316 0,261.516 0,227.318 V 184.57 c -92.213,-34.539 -153.73,-61.859 -184.57,-81.975 -48.621,-32.527 -72.924,-73.093 -72.924,-121.706 0,-31.181 10.561,-56.919 31.684,-77.197 21.123,-20.287 46.09,-30.427 74.935,-30.427 27.481,0 56.488,9.053 87.004,27.158 18.105,10.723 39.892,27.157 65.379,49.285 1.006,-20.457 6.619,-38.059 16.84,-52.806 10.236,-14.755 26.736,-22.128 49.545,-22.128 19.435,0 38.546,6.368 57.332,19.111 12.395,8.379 23.961,19.111 34.701,32.186 v 26.152 c -12.41,-9.052 -21.121,-14.755 -26.152,-17.099 -5.028,-2.353 -11.404,-3.52 -19.11,-3.52 -13.757,0 -22.81,6.537 -27.158,19.613 -2.693,7.374 -4.023,20.782 -4.023,40.233 v 201.67 c 0,22.254 -1.578,41.827 -4.715,58.74 -35.071,18.79 -68.994,40.092 -101.801,63.336 5.295,-4.598 9.699,-10.013 12.974,-16.464" /></g><g
           transform="translate(5668.7393,501.0742)"
           id="g132"><path
             id="path134"
             style="fill:#000063;fill-opacity:1;fill-rule:nonzero;stroke:none"
             d="m 0,0 c -2.505,1.882 -5.036,3.715 -7.529,5.617 -3.344,0.12 -6.506,0.422 -9.969,0.422 -3.884,0 -7.546,-0.21 -11.302,-0.334 9.515,-7.572 19.098,-15.037 28.8,-22.329 z" /></g><g
           transform="translate(5639.9395,506.7793)"
           id="g136"><path
             id="path138"
             style="fill:#0000cc;fill-opacity:1;fill-rule:nonzero;stroke:none"
             d="m 0,0 c -50.371,-1.654 -89.199,-14.27 -116.195,-38.139 -28.992,-25.649 -43.494,-50.211 -43.494,-73.677 0,-12.071 4.022,-23.053 12.07,-32.942 8.047,-9.895 19.613,-14.836 34.701,-14.836 9.717,0 18.105,2.174 25.145,6.538 12.395,7.374 18.609,20.45 18.609,39.229 0,2.676 -0.844,8.801 -2.516,18.355 -1.687,9.555 -2.513,16.345 -2.513,20.368 0,15.753 7.705,28.164 23.133,37.216 15.412,8.712 31.684,13.076 48.783,13.076 21.133,0 37.906,-4.006 50.547,-11.805 -6.528,4.702 -13.029,9.446 -19.471,14.289 C 19.098,-15.038 9.514,-7.571 0,0" /></g><g
           transform="translate(5695.6006,464.7363)"
           id="g140"><path
             id="path142"
             style="fill:#96846e;fill-opacity:1;fill-rule:nonzero;stroke:none"
             d="M 0,0 C -2.277,1.979 -4.739,3.789 -7.392,5.426 -4.914,3.639 -2.49,1.764 0,0" /></g><g
           transform="translate(5668.7393,501.0742)"
           id="g144"><path
             id="path146"
             style="fill:#000063;fill-opacity:1;fill-rule:nonzero;stroke:none"
             d="m 0,0 v -16.624 c 6.44,-4.841 12.942,-9.585 19.47,-14.288 2.652,-1.637 5.114,-3.446 7.39,-5.426 32.808,-23.244 66.731,-44.546 101.801,-63.336 -1.277,6.888 -2.873,13.233 -4.672,19.235 C 80.944,-57.023 39.665,-29.812 0,0" /></g><g
           transform="translate(6082.7266,60.7754)"
           id="g148"><path
             id="path150"
             style="fill:#0000cc;fill-opacity:1;fill-rule:nonzero;stroke:none"
             d="m 0,0 c -10.058,8.55 -15.087,27.409 -15.087,56.578 v 216.425 16.623 10.644 16.623 290.858 c -16.37,3.437 -33.392,4.033 -50.542,0.774 -11.978,-2.276 -25.666,-9.019 -39.947,-16.083 2.932,-8.803 4.49,-22.757 4.49,-42.503 V 315.219 298.596 289.194 272.571 58.59 c 0,-27.831 -5.531,-46.52 -16.596,-56.075 -11.064,-9.556 -32.187,-15.842 -63.368,-18.86 V -30.426 H 62.362 v 14.081 C 30.84,-14.001 10.059,-8.55 0,0" /></g><g
           transform="translate(6067.6396,668.5259)"
           id="g152"><path
             id="path154"
             style="fill:#000063;fill-opacity:1;fill-rule:nonzero;stroke:none"
             d="m 0,0 v 16.623 c -16.369,3.437 -33.392,4.033 -50.542,0.774 -14.137,-2.686 -30.648,-11.586 -47.717,-19.902 2.693,-2.719 4.973,-5.861 6.728,-9.542 0.397,-0.902 0.688,-2.2 1.042,-3.262 14.281,7.065 27.968,13.807 39.947,16.084 C -33.392,4.034 -16.369,3.437 0,0" /></g><g
           transform="translate(850.3984,150.3525)"
           id="g156"><path
             id="path158"
             style="fill:#000063;fill-opacity:1;fill-rule:nonzero;stroke:none"
             d="M 0,0 V -8.356 C 0,-11.29 -0.104,-13.972 -0.172,-16.74 35.449,8.003 70.357,33.799 104.607,60.521 V 77.146 C 70.411,50.466 35.562,24.708 0,0" /></g><g
           transform="translate(892.9238,602.4902)"
           id="g160"><path
             id="path162"
             style="fill:#000063;fill-opacity:1;fill-rule:nonzero;stroke:none"
             d="m 0,0 3.91,5.812 c -12.157,9.766 -24.826,19.136 -37.72,28.303 l -10.211,5.282 c -0.777,0.382 -1.577,0.733 -2.355,1.112 1.178,-5.417 2.129,-11.328 2.756,-17.943 z" /></g><g
           transform="translate(1243.1758,480.9316)"
           id="g164"><path
             id="path166"
             style="fill:#000063;fill-opacity:1;fill-rule:nonzero;stroke:none"
             d="m 0,0 c -27.885,-26.843 -56.1,-53.455 -84.685,-79.768 0.513,-4.666 0.832,-9.939 0.994,-15.703 28.243,26.014 56.131,52.318 83.691,78.848 z" /></g><g
           transform="translate(850.3984,178.6055)"
           id="g168"><path
             id="path170"
             style="fill:#006ee7;fill-opacity:1;fill-rule:nonzero;stroke:none"
             d="m 0,0 c 35.68,32.056 70.218,65.578 104.607,98.971 v 16.623 C 70.218,82.2 35.68,48.678 0,16.623 Z" /></g><g
           transform="translate(850.3984,178.6055)"
           id="g172"><path
             id="path174"
             style="fill:#006ee7;fill-opacity:1;fill-rule:nonzero;stroke:none"
             d="M 0,0 V -28.254 C 35.562,-3.546 70.411,22.212 104.607,48.893 V 98.971 C 70.218,65.578 35.68,32.056 0,0" /></g><g
           transform="translate(814.9102,682.4697)"
           id="g176"><path
             id="path178"
             style="fill:#006ee7;fill-opacity:1;fill-rule:nonzero;stroke:none"
             d="m 0,0 c -16.784,10.35 -33.967,20.181 -51.611,29.33 -135.451,70.242 -294.03,102.878 -443.36,61.476 -176.837,-46.559 -318.402,-203.706 -319.881,-390.912 -0.158,-4.87 0.049,-9.7 0.113,-14.548 1.743,-132.151 84.551,-255.317 200.106,-314.684 160.959,-83.267 360.318,-60.923 519.78,13.574 44.631,25.986 87.914,54.17 130.341,83.647 v 28.253 16.623 c -44.465,-39.95 -90.751,-77.505 -141.369,-108.665 -219.557,-118.302 -557.072,-56.999 -630.232,205.344 -5.639,21.961 -8.58,43.914 -9.189,65.644 -4.441,158.366 117.961,304.59 269.985,350.749 168.243,54.317 351.426,10.528 506.955,-65.301 0.778,-0.38 1.578,-0.731 2.355,-1.112 l 10.211,-5.282 33.81,-17.493 3.91,5.812 C 62.243,-41.733 41.532,-26.669 19.982,-12.5 13.44,-8.199 6.694,-4.127 0,0" /></g><g
           transform="translate(1577.4912,729.7832)"
           id="g180"><path
             id="path182"
             style="fill:#006ee7;fill-opacity:1;fill-rule:nonzero;stroke:none"
             d="m 0,0 c -69.546,20.287 -146.677,-10.768 -198.805,-54.872 -53.811,-40.529 -103.155,-84.726 -153.505,-128.822 -26.211,-23.585 -53.368,-48.238 -80.597,-73.129 -11.653,-10.651 -23.246,-21.247 -34.872,-31.983 -35.319,-32.615 -70.27,-65.412 -102.977,-97.096 -17.329,-16.319 -34.526,-32.976 -51.73,-49.683 v -16.623 -50.077 c 70.294,54.848 137.904,113.299 203.486,173.666 28.584,26.312 56.8,52.925 84.684,79.767 7.465,7.186 15.032,14.308 22.452,21.517 55.308,52.101 120.046,119.891 179.071,166.219 54.648,42.435 138.448,54.616 193.548,8.933 5.314,-4.406 10.456,-9.154 15.182,-14.665 l 5.721,4.041 C 64.334,-32.483 34.36,-8.842 0,0" /></g></g></g></g></svg>